Dark-Country-3D-Half-SBS-Raster-[THD]

THD is makeing a come back.

keep a eye out for more from THD ;)

Format : Matroska
File size : 8.34 GiB
Duration : 1h 28mn
Overall bit rate : 13.6 Mbps
Writing application : mkvmerge v4.6.0 (\\\'Still Crazy After All These Years\\\') built on Mar 10 2011 02:50:32
Writing library : libebml v1.2.0 + libmatroska v1.1.0

Video
ID : 1
Format : AVC
Format/Info : Advanced Video Codec
Format profile : High@L4.1
Duration : 1h 28mn
Bit rate mode : Variable
Bit rate : 11.8 Mbps
Maximum bit rate : 18.1 Mbps
Width : 1 920 pixels
Height : 1 080 pixels
Display aspect ratio : 16:9
Frame rate : 23.976 fps
Bit depth : 8 bits
Scan type : Progressive
Bits/(Pixel*Frame) : 0.237
Stream size : 7.25 GiB (87%)
Language : English

Audio
ID : 2
Format : DTS
Format/Info : Digital Theater Systems
Codec ID : A_DTS
Duration : 1h 28mn
Bit rate mode : Constant
Bit rate : 1 510 Kbps
Channel(s) : 6 channels
Channel positions : Front: L C R, Side: L R, LFE
Sampling rate : 48.0 KHz
Bit depth : 16 bits
Compression mode : Lossy
Stream size : 952 MiB (11%)
Language : English

Cover = http://img508.imageshack.us/img508/1570/darkcountry.jpg

IMDB = http://www.imdb.com/title/tt0469318/

Best Regards to all,

Raster.